M48
; DRILL file {KiCad (5.1.4)-1} date 6/29/2020 2:55:19 PM
; FORMAT={-:-/ absolute / inch / decimal}
; #@! TF.CreationDate,2020-06-29T14:55:19+08:00
; #@! TF.GenerationSoftware,Kicad,Pcbnew,(5.1.4)-1
; #@! TF.FileFunction,Plated,1,2,PTH
FMAT,2
INCH
T1C0.0157
T2C0.0315
T3C0.0354
T4C0.0394
T5C0.0433
%
G90
G05
T1
X2.4Y-2.1
X2.55Y-2.15
X2.75Y-2.1
X2.75Y-5.55
X3.1Y-2.05
X3.25Y-2.1
X3.4Y-2.15
X3.65Y-2.1
X4.1Y-2.15
X4.45Y-2.05
X4.5Y-5.55
X5.0Y-2.15
X5.1Y-2.1
X5.25Y-4.55
X5.55Y-2.15
X5.55Y-2.3
X5.6Y-2.1
X5.6Y-2.3
X5.65Y-2.05
X5.65Y-2.3
X6.35Y-2.05
X6.5Y-2.1
X7.0Y-2.15
X7.65Y-2.05
X7.8Y-2.15
X8.3Y-2.1
X8.45Y-2.15
X8.95Y-2.05
X9.1Y-2.1
X9.25Y-2.15
T2
X2.05Y-1.2
X2.05Y-1.5
X1.9Y-4.8
X2.2Y-4.8
X8.9Y-4.95
X8.9Y-5.25
X3.85Y-2.9
X3.85Y-3.2
X4.775Y-2.9
X4.775Y-3.2
X8.65Y-1.2
X8.65Y-1.5
X4.55Y-1.2
X4.55Y-1.5
X6.45Y-2.9
X6.45Y-3.2
X8.4Y-1.2
X8.4Y-1.5
X4.15Y-2.9
X4.15Y-3.2
X2.8Y-3.6
X2.8Y-3.9
X8.5Y-3.55
X8.5Y-3.85
X7.35Y-1.2
X7.35Y-1.5
X6.0Y-3.7
X6.0Y-3.8
X6.0Y-3.9
X6.0Y-4.0
X6.0Y-4.1
X6.0Y-4.2
X6.0Y-4.3
X6.3Y-3.7
X6.3Y-3.8
X6.3Y-3.9
X6.3Y-4.0
X6.3Y-4.1
X6.3Y-4.2
X6.3Y-4.3
X2.05Y-2.9
X2.05Y-3.2
X4.8Y-1.2
X4.8Y-1.5
X9.05Y-2.9
X9.05Y-3.2
X2.8Y-2.9
X2.8Y-3.2
X8.0Y-2.9
X8.0Y-3.2
X3.6Y-4.0
X3.6Y-4.3
X8.55Y-4.95
X8.55Y-5.25
X4.0Y-4.0
X4.0Y-4.3
X3.45Y-2.9
X3.45Y-3.2
X6.7Y-4.7
X7.0Y-4.7
X8.75Y-4.95
X8.75Y-5.25
X8.4Y-2.9
X8.4Y-3.2
X3.45Y-1.2
X3.45Y-1.5
X6.7Y-1.2
X6.7Y-1.5
X3.2Y-1.2
X3.2Y-1.5
X8.0Y-1.2
X8.0Y-1.5
X5.2Y-1.2
X5.2Y-1.5
X7.1Y-2.9
X7.1Y-3.2
X4.6Y-3.9
X4.9Y-3.9
X2.75Y-1.2
X2.75Y-1.5
X4.55Y-2.9
X4.55Y-3.2
X7.1Y-1.2
X7.1Y-1.5
X1.75Y-2.05
X1.75Y-2.35
X7.75Y-2.9
X7.75Y-3.2
X8.65Y-3.55
X8.65Y-3.85
X2.5Y-1.2
X2.5Y-1.5
X4.1Y-1.2
X4.1Y-1.5
X4.8Y-4.8
X5.1Y-4.8
X1.3Y-2.05
X1.3Y-2.35
X7.35Y-2.9
X7.35Y-3.2
X5.2Y-2.9
X5.2Y-3.2
X6.05Y-1.2
X6.05Y-1.5
X7.75Y-1.2
X7.75Y-1.5
X3.2Y-2.9
X3.2Y-3.2
X6.05Y-2.9
X6.05Y-3.2
X6.45Y-1.2
X6.45Y-1.5
X3.85Y-1.2
X3.85Y-1.5
X9.05Y-1.2
X9.05Y-1.5
X7.6Y-3.5
X7.6Y-3.8
X2.5Y-2.9
X2.5Y-3.2
X6.7Y-2.9
X6.7Y-3.2
X5.1Y-3.7
X5.1Y-3.8
X5.1Y-3.9
X5.1Y-4.0
X5.1Y-4.1
X5.1Y-4.2
X5.1Y-4.3
X5.4Y-3.7
X5.4Y-3.8
X5.4Y-3.9
X5.4Y-4.0
X5.4Y-4.1
X5.4Y-4.2
X5.4Y-4.3
X8.8Y-3.55
X8.8Y-3.85
X8.65Y-2.9
X8.65Y-3.2
T3
X2.25Y-1.2
X2.35Y-1.2
X2.75Y-1.6
X2.75Y-1.9
X7.95Y-2.35
X7.95Y-2.65
X4.3Y-2.9
X4.4Y-2.9
X2.5173Y-5.1181
X2.5173Y-5.4181
X3.6Y-1.2
X3.7Y-1.2
X2.4Y-2.35
X2.4Y-2.65
X2.95Y-1.2
X3.05Y-1.2
X7.5Y-2.9
X7.6Y-2.9
X6.5Y-2.35
X6.5Y-2.65
X6.2Y-2.9
X6.3Y-2.9
X8.6Y-2.35
X8.6Y-2.65
X3.1Y-2.35
X3.1Y-2.65
X8.8Y-1.2
X8.9Y-1.2
X4.45Y-2.35
X4.45Y-2.65
X5.1Y-2.35
X5.1Y-2.65
X8.15Y-2.9
X8.25Y-2.9
X2.25Y-2.9
X2.35Y-2.9
X7.3Y-5.0
X7.3Y-5.3
X4.8Y-1.6
X4.8Y-1.9
X7.5Y-1.2
X7.6Y-1.2
X5.0Y-1.6
X5.0Y-1.9
X9.1Y-2.35
X9.1Y-2.65
X3.6Y-2.9
X3.7Y-2.9
X9.25Y-2.35
X9.25Y-2.65
X3.75Y-4.0
X3.85Y-4.0
X3.45Y-1.6
X3.45Y-1.9
X7.65Y-2.35
X7.65Y-2.65
X3.75Y-2.35
X3.75Y-2.65
X8.15Y-1.2
X8.25Y-1.2
X4.5Y-5.1
X4.5Y-5.4
X7.0Y-2.35
X7.0Y-2.65
X6.65Y-2.35
X6.65Y-2.65
X3.25Y-2.35
X3.25Y-2.65
X7.8Y-2.35
X7.8Y-2.65
X6.35Y-2.35
X6.35Y-2.65
X4.6Y-2.35
X4.6Y-2.65
X7.0Y-4.9
X7.0Y-5.0
X4.95Y-1.2
X5.05Y-1.2
X7.15Y-2.35
X7.15Y-2.65
X2.05Y-1.6
X2.05Y-1.9
X9.4Y-2.35
X9.4Y-2.65
X4.3Y-1.2
X4.4Y-1.2
X4.1Y-1.6
X4.1Y-1.9
X8.3Y-2.35
X8.3Y-2.65
X4.95Y-2.9
X5.05Y-2.9
X8.45Y-2.35
X8.45Y-2.65
X6.85Y-2.9
X6.95Y-2.9
X2.95Y-2.9
X3.05Y-2.9
X5.25Y-2.35
X5.25Y-2.65
X6.85Y-1.2
X6.95Y-1.2
X2.55Y-2.35
X2.55Y-2.65
X8.95Y-2.35
X8.95Y-2.65
X1.5Y-2.3
X1.5Y-2.6
X6.2Y-1.2
X6.3Y-1.2
X3.4Y-2.35
X3.4Y-2.65
X3.65Y-1.6
X3.65Y-1.9
X8.8Y-2.9
X8.9Y-2.9
X1.5Y-2.05
X1.6Y-2.05
X2.75Y-5.1181
X2.75Y-5.4181
X2.2Y-5.0
X2.2Y-5.1
T4
X8.15Y-0.85
X8.15Y-0.95
X6.2Y-2.55
X6.2Y-2.65
X2.25Y-2.55
X2.25Y-2.65
X4.3Y-2.55
X4.3Y-2.65
X3.6Y-0.85
X3.6Y-0.95
X7.5Y-4.3
X7.5Y-4.4
X7.5Y-4.5
X7.6Y-3.9
X7.7Y-3.9
X6.85Y-2.55
X6.85Y-2.65
X2.8Y-4.0
X2.9Y-4.0
X7.5Y-0.85
X7.5Y-0.95
X2.95Y-0.85
X2.95Y-0.95
X8.8Y-0.85
X8.8Y-0.95
X4.3Y-0.85
X4.3Y-0.95
X3.3Y-5.1
X3.4Y-5.1
X3.5Y-5.1
X5.4Y-5.4
X5.5Y-5.4
X8.8Y-2.55
X8.8Y-2.65
X5.4Y-4.9
X5.5Y-4.9
X2.95Y-2.55
X2.95Y-2.65
X8.15Y-2.55
X8.15Y-2.65
X8.0Y-5.0
X8.1Y-5.0
X8.2Y-5.0
X1.5Y-1.7
X1.5Y-1.8
X2.7Y-4.4
X2.7Y-4.5
X2.7Y-4.6
X4.95Y-0.85
X4.95Y-0.95
X6.85Y-0.85
X6.85Y-0.95
X4.95Y-2.55
X4.95Y-2.65
X2.25Y-0.85
X2.25Y-0.95
X3.6Y-2.55
X3.6Y-2.65
X3.75Y-3.65
X3.75Y-3.75
X4.7Y-4.5
X4.7Y-4.6
X4.7Y-4.7
X4.7Y-4.8
X7.5Y-2.55
X7.5Y-2.65
X6.2Y-0.85
X6.2Y-0.95
T5
X8.55Y-3.95
X8.55Y-4.55
X8.65Y-3.95
X8.65Y-4.55
X8.75Y-3.95
X8.75Y-4.55
X8.85Y-3.95
X8.85Y-4.55
X8.95Y-3.95
X8.95Y-4.55
X9.05Y-3.95
X9.05Y-4.55
X9.15Y-3.95
X9.15Y-4.55
X9.25Y-3.95
X9.25Y-4.55
X9.35Y-3.95
X9.35Y-4.55
X9.45Y-3.95
X9.45Y-4.55
X9.55Y-3.95
X9.55Y-4.55
X9.65Y-3.95
X9.65Y-4.55
T0
M30
